<mxfile host="app.diagrams.net" modified="2020-10-16T17:46:41.250Z" agent="5.0 (Macintosh; Intel Mac OS X 10_15_5) AppleWebKit/537.36 (KHTML, like Gecko) Chrome/86.0.4240.75 Safari/537.36" etag="O5KmEA2tNPEyFVEeEojb" version="13.7.5" type="github">
  <diagram id="2JP4zn18vcv0_0rrnWVd" name="Page-1">
    <mxGraphModel dx="1542" dy="979" grid="1" gridSize="10" guides="1" tooltips="1" connect="1" arrows="1" fold="1" page="1" pageScale="1" pageWidth="850" pageHeight="1100" math="0" shadow="0">
      <root>
        <mxCell id="0" />
        <mxCell id="1" parent="0" />
        <mxCell id="ouYk16RSTw8LWHRPLyfc-6" style="edgeStyle=orthogonalEdgeStyle;rounded=0;orthogonalLoop=1;jettySize=auto;html=1;entryX=0.5;entryY=0;entryDx=0;entryDy=0;" edge="1" parent="1" source="ouYk16RSTw8LWHRPLyfc-1" target="ouYk16RSTw8LWHRPLyfc-2">
          <mxGeometry relative="1" as="geometry" />
        </mxCell>
        <mxCell id="ouYk16RSTw8LWHRPLyfc-1" value="BANCO" style="shape=cylinder3;whiteSpace=wrap;html=1;boundedLbl=1;backgroundOutline=1;size=15;" vertex="1" parent="1">
          <mxGeometry x="500" y="120" width="90" height="100" as="geometry" />
        </mxCell>
        <mxCell id="ouYk16RSTw8LWHRPLyfc-2" value="&lt;font style=&quot;font-size: 10px&quot;&gt;CACHE = TRUE / FALSE&lt;/font&gt;" style="rounded=1;whiteSpace=wrap;html=1;" vertex="1" parent="1">
          <mxGeometry x="250" y="290" width="120" height="60" as="geometry" />
        </mxCell>
        <mxCell id="ouYk16RSTw8LWHRPLyfc-3" style="edgeStyle=orthogonalEdgeStyle;rounded=0;orthogonalLoop=1;jettySize=auto;html=1;exitX=0.5;exitY=1;exitDx=0;exitDy=0;" edge="1" parent="1" source="ouYk16RSTw8LWHRPLyfc-2" target="ouYk16RSTw8LWHRPLyfc-2">
          <mxGeometry relative="1" as="geometry" />
        </mxCell>
        <mxCell id="ouYk16RSTw8LWHRPLyfc-5" style="edgeStyle=orthogonalEdgeStyle;rounded=0;orthogonalLoop=1;jettySize=auto;html=1;" edge="1" parent="1" source="ouYk16RSTw8LWHRPLyfc-4">
          <mxGeometry relative="1" as="geometry">
            <mxPoint x="540" y="230" as="targetPoint" />
            <Array as="points">
              <mxPoint x="540" y="365" />
              <mxPoint x="540" y="280" />
            </Array>
          </mxGeometry>
        </mxCell>
        <mxCell id="ouYk16RSTw8LWHRPLyfc-4" value="PLATAFORMA" style="whiteSpace=wrap;html=1;aspect=fixed;" vertex="1" parent="1">
          <mxGeometry x="700" y="320" width="90" height="90" as="geometry" />
        </mxCell>
        <mxCell id="ouYk16RSTw8LWHRPLyfc-8" style="edgeStyle=orthogonalEdgeStyle;rounded=0;orthogonalLoop=1;jettySize=auto;html=1;" edge="1" parent="1" source="ouYk16RSTw8LWHRPLyfc-7" target="ouYk16RSTw8LWHRPLyfc-11">
          <mxGeometry relative="1" as="geometry">
            <mxPoint x="180" y="415" as="targetPoint" />
          </mxGeometry>
        </mxCell>
        <mxCell id="ouYk16RSTw8LWHRPLyfc-7" value="USUÁRIOS" style="ellipse;shape=cloud;whiteSpace=wrap;html=1;" vertex="1" parent="1">
          <mxGeometry x="130" y="610" width="180" height="90" as="geometry" />
        </mxCell>
        <mxCell id="ouYk16RSTw8LWHRPLyfc-9" value="Aplicação" style="whiteSpace=wrap;html=1;aspect=fixed;" vertex="1" parent="1">
          <mxGeometry x="140" y="280" width="80" height="80" as="geometry" />
        </mxCell>
        <mxCell id="ouYk16RSTw8LWHRPLyfc-11" value="CACHE" style="shape=hexagon;perimeter=hexagonPerimeter2;whiteSpace=wrap;html=1;fixedSize=1;" vertex="1" parent="1">
          <mxGeometry x="160" y="400" width="120" height="80" as="geometry" />
        </mxCell>
      </root>
    </mxGraphModel>
  </diagram>
</mxfile>
